G75*
%MOIN*%
%OFA0B0*%
%FSLAX25Y25*%
%IPPOS*%
%LPD*%
%AMOC8*
5,1,8,0,0,1.08239X$1,22.5*
%
%ADD10C,0.00000*%
%ADD11R,0.06500X0.06500*%
%ADD12C,0.06500*%
%ADD13C,0.00700*%
%ADD14C,0.02400*%
%ADD15C,0.00800*%
%ADD16C,0.01200*%
D10*
X0001750Y0001350D02*
X0001750Y0074185D01*
X0080490Y0074185D01*
X0080490Y0001350D01*
X0001750Y0001350D01*
X0035214Y0062374D02*
X0035216Y0062527D01*
X0035222Y0062681D01*
X0035232Y0062834D01*
X0035246Y0062986D01*
X0035264Y0063139D01*
X0035286Y0063290D01*
X0035311Y0063441D01*
X0035341Y0063592D01*
X0035375Y0063742D01*
X0035412Y0063890D01*
X0035453Y0064038D01*
X0035498Y0064184D01*
X0035547Y0064330D01*
X0035600Y0064474D01*
X0035656Y0064616D01*
X0035716Y0064757D01*
X0035780Y0064897D01*
X0035847Y0065035D01*
X0035918Y0065171D01*
X0035993Y0065305D01*
X0036070Y0065437D01*
X0036152Y0065567D01*
X0036236Y0065695D01*
X0036324Y0065821D01*
X0036415Y0065944D01*
X0036509Y0066065D01*
X0036607Y0066183D01*
X0036707Y0066299D01*
X0036811Y0066412D01*
X0036917Y0066523D01*
X0037026Y0066631D01*
X0037138Y0066736D01*
X0037252Y0066837D01*
X0037370Y0066936D01*
X0037489Y0067032D01*
X0037611Y0067125D01*
X0037736Y0067214D01*
X0037863Y0067301D01*
X0037992Y0067383D01*
X0038123Y0067463D01*
X0038256Y0067539D01*
X0038391Y0067612D01*
X0038528Y0067681D01*
X0038667Y0067746D01*
X0038807Y0067808D01*
X0038949Y0067866D01*
X0039092Y0067921D01*
X0039237Y0067972D01*
X0039383Y0068019D01*
X0039530Y0068062D01*
X0039678Y0068101D01*
X0039827Y0068137D01*
X0039977Y0068168D01*
X0040128Y0068196D01*
X0040279Y0068220D01*
X0040432Y0068240D01*
X0040584Y0068256D01*
X0040737Y0068268D01*
X0040890Y0068276D01*
X0041043Y0068280D01*
X0041197Y0068280D01*
X0041350Y0068276D01*
X0041503Y0068268D01*
X0041656Y0068256D01*
X0041808Y0068240D01*
X0041961Y0068220D01*
X0042112Y0068196D01*
X0042263Y0068168D01*
X0042413Y0068137D01*
X0042562Y0068101D01*
X0042710Y0068062D01*
X0042857Y0068019D01*
X0043003Y0067972D01*
X0043148Y0067921D01*
X0043291Y0067866D01*
X0043433Y0067808D01*
X0043573Y0067746D01*
X0043712Y0067681D01*
X0043849Y0067612D01*
X0043984Y0067539D01*
X0044117Y0067463D01*
X0044248Y0067383D01*
X0044377Y0067301D01*
X0044504Y0067214D01*
X0044629Y0067125D01*
X0044751Y0067032D01*
X0044870Y0066936D01*
X0044988Y0066837D01*
X0045102Y0066736D01*
X0045214Y0066631D01*
X0045323Y0066523D01*
X0045429Y0066412D01*
X0045533Y0066299D01*
X0045633Y0066183D01*
X0045731Y0066065D01*
X0045825Y0065944D01*
X0045916Y0065821D01*
X0046004Y0065695D01*
X0046088Y0065567D01*
X0046170Y0065437D01*
X0046247Y0065305D01*
X0046322Y0065171D01*
X0046393Y0065035D01*
X0046460Y0064897D01*
X0046524Y0064757D01*
X0046584Y0064616D01*
X0046640Y0064474D01*
X0046693Y0064330D01*
X0046742Y0064184D01*
X0046787Y0064038D01*
X0046828Y0063890D01*
X0046865Y0063742D01*
X0046899Y0063592D01*
X0046929Y0063441D01*
X0046954Y0063290D01*
X0046976Y0063139D01*
X0046994Y0062986D01*
X0047008Y0062834D01*
X0047018Y0062681D01*
X0047024Y0062527D01*
X0047026Y0062374D01*
X0047024Y0062221D01*
X0047018Y0062067D01*
X0047008Y0061914D01*
X0046994Y0061762D01*
X0046976Y0061609D01*
X0046954Y0061458D01*
X0046929Y0061307D01*
X0046899Y0061156D01*
X0046865Y0061006D01*
X0046828Y0060858D01*
X0046787Y0060710D01*
X0046742Y0060564D01*
X0046693Y0060418D01*
X0046640Y0060274D01*
X0046584Y0060132D01*
X0046524Y0059991D01*
X0046460Y0059851D01*
X0046393Y0059713D01*
X0046322Y0059577D01*
X0046247Y0059443D01*
X0046170Y0059311D01*
X0046088Y0059181D01*
X0046004Y0059053D01*
X0045916Y0058927D01*
X0045825Y0058804D01*
X0045731Y0058683D01*
X0045633Y0058565D01*
X0045533Y0058449D01*
X0045429Y0058336D01*
X0045323Y0058225D01*
X0045214Y0058117D01*
X0045102Y0058012D01*
X0044988Y0057911D01*
X0044870Y0057812D01*
X0044751Y0057716D01*
X0044629Y0057623D01*
X0044504Y0057534D01*
X0044377Y0057447D01*
X0044248Y0057365D01*
X0044117Y0057285D01*
X0043984Y0057209D01*
X0043849Y0057136D01*
X0043712Y0057067D01*
X0043573Y0057002D01*
X0043433Y0056940D01*
X0043291Y0056882D01*
X0043148Y0056827D01*
X0043003Y0056776D01*
X0042857Y0056729D01*
X0042710Y0056686D01*
X0042562Y0056647D01*
X0042413Y0056611D01*
X0042263Y0056580D01*
X0042112Y0056552D01*
X0041961Y0056528D01*
X0041808Y0056508D01*
X0041656Y0056492D01*
X0041503Y0056480D01*
X0041350Y0056472D01*
X0041197Y0056468D01*
X0041043Y0056468D01*
X0040890Y0056472D01*
X0040737Y0056480D01*
X0040584Y0056492D01*
X0040432Y0056508D01*
X0040279Y0056528D01*
X0040128Y0056552D01*
X0039977Y0056580D01*
X0039827Y0056611D01*
X0039678Y0056647D01*
X0039530Y0056686D01*
X0039383Y0056729D01*
X0039237Y0056776D01*
X0039092Y0056827D01*
X0038949Y0056882D01*
X0038807Y0056940D01*
X0038667Y0057002D01*
X0038528Y0057067D01*
X0038391Y0057136D01*
X0038256Y0057209D01*
X0038123Y0057285D01*
X0037992Y0057365D01*
X0037863Y0057447D01*
X0037736Y0057534D01*
X0037611Y0057623D01*
X0037489Y0057716D01*
X0037370Y0057812D01*
X0037252Y0057911D01*
X0037138Y0058012D01*
X0037026Y0058117D01*
X0036917Y0058225D01*
X0036811Y0058336D01*
X0036707Y0058449D01*
X0036607Y0058565D01*
X0036509Y0058683D01*
X0036415Y0058804D01*
X0036324Y0058927D01*
X0036236Y0059053D01*
X0036152Y0059181D01*
X0036070Y0059311D01*
X0035993Y0059443D01*
X0035918Y0059577D01*
X0035847Y0059713D01*
X0035780Y0059851D01*
X0035716Y0059991D01*
X0035656Y0060132D01*
X0035600Y0060274D01*
X0035547Y0060418D01*
X0035498Y0060564D01*
X0035453Y0060710D01*
X0035412Y0060858D01*
X0035375Y0061006D01*
X0035341Y0061156D01*
X0035311Y0061307D01*
X0035286Y0061458D01*
X0035264Y0061609D01*
X0035246Y0061762D01*
X0035232Y0061914D01*
X0035222Y0062067D01*
X0035216Y0062221D01*
X0035214Y0062374D01*
D11*
X0007656Y0007216D03*
X0074585Y0007216D03*
D12*
X0074585Y0017216D03*
X0074585Y0027216D03*
X0074585Y0037216D03*
X0007656Y0037216D03*
X0007656Y0027216D03*
X0007656Y0017216D03*
D13*
X0004568Y0020210D02*
X0004100Y0020210D01*
X0004100Y0019742D02*
X0004100Y0024691D01*
X0005220Y0023571D01*
X0006800Y0022916D01*
X0008511Y0022916D01*
X0010091Y0023571D01*
X0011301Y0024780D01*
X0011955Y0026361D01*
X0011955Y0028071D01*
X0011547Y0029057D01*
X0019000Y0036510D01*
X0019000Y0054018D01*
X0019800Y0054818D01*
X0019800Y0056682D01*
X0018482Y0058000D01*
X0016618Y0058000D01*
X0015300Y0056682D01*
X0015300Y0054818D01*
X0016100Y0054018D01*
X0016100Y0037711D01*
X0009497Y0031108D01*
X0008511Y0031516D01*
X0006800Y0031516D01*
X0005220Y0030861D01*
X0004100Y0029742D01*
X0004100Y0034691D01*
X0005220Y0033571D01*
X0006800Y0032916D01*
X0008511Y0032916D01*
X0010091Y0033571D01*
X0011301Y0034780D01*
X0011955Y0036361D01*
X0011955Y0038071D01*
X0011301Y0039652D01*
X0010091Y0040861D01*
X0008511Y0041516D01*
X0006800Y0041516D01*
X0005220Y0040861D01*
X0004100Y0039742D01*
X0004100Y0071835D01*
X0078140Y0071835D01*
X0078140Y0039742D01*
X0077020Y0040861D01*
X0075440Y0041516D01*
X0073729Y0041516D01*
X0072149Y0040861D01*
X0070939Y0039652D01*
X0070285Y0038071D01*
X0070285Y0036361D01*
X0070939Y0034780D01*
X0072149Y0033571D01*
X0073729Y0032916D01*
X0075440Y0032916D01*
X0077020Y0033571D01*
X0078140Y0034691D01*
X0078140Y0029742D01*
X0077020Y0030861D01*
X0075440Y0031516D01*
X0073729Y0031516D01*
X0072744Y0031108D01*
X0066100Y0037751D01*
X0066100Y0055118D01*
X0066900Y0055918D01*
X0066900Y0057782D01*
X0065582Y0059100D01*
X0063718Y0059100D01*
X0062400Y0057782D01*
X0062400Y0055918D01*
X0063200Y0055118D01*
X0063200Y0036550D01*
X0070693Y0029057D01*
X0070285Y0028071D01*
X0070285Y0026361D01*
X0070939Y0024780D01*
X0072149Y0023571D01*
X0073729Y0022916D01*
X0075440Y0022916D01*
X0077020Y0023571D01*
X0078140Y0024691D01*
X0078140Y0019742D01*
X0077020Y0020861D01*
X0075440Y0021516D01*
X0073729Y0021516D01*
X0072944Y0021191D01*
X0061850Y0032284D01*
X0055900Y0038234D01*
X0055900Y0042618D01*
X0056500Y0043218D01*
X0056500Y0045082D01*
X0055182Y0046400D01*
X0053318Y0046400D01*
X0052000Y0045082D01*
X0052000Y0043218D01*
X0052600Y0042618D01*
X0052600Y0036867D01*
X0059517Y0029950D01*
X0070610Y0018857D01*
X0070285Y0018071D01*
X0070285Y0016361D01*
X0070939Y0014780D01*
X0072149Y0013571D01*
X0073729Y0012916D01*
X0075440Y0012916D01*
X0077020Y0013571D01*
X0078140Y0014691D01*
X0078140Y0011782D01*
X0078012Y0011816D01*
X0074935Y0011816D01*
X0074935Y0007566D01*
X0074235Y0007566D01*
X0074235Y0011816D01*
X0071157Y0011816D01*
X0070814Y0011724D01*
X0070506Y0011546D01*
X0070254Y0011295D01*
X0070077Y0010987D01*
X0069985Y0010644D01*
X0069985Y0007566D01*
X0074235Y0007566D01*
X0074235Y0006866D01*
X0069985Y0006866D01*
X0069985Y0003788D01*
X0070008Y0003700D01*
X0012232Y0003700D01*
X0012255Y0003788D01*
X0012255Y0006866D01*
X0008006Y0006866D01*
X0008006Y0007566D01*
X0012255Y0007566D01*
X0012255Y0010644D01*
X0012163Y0010987D01*
X0011986Y0011295D01*
X0011734Y0011546D01*
X0011427Y0011724D01*
X0011083Y0011816D01*
X0008005Y0011816D01*
X0008005Y0007566D01*
X0007306Y0007566D01*
X0007306Y0011816D01*
X0004228Y0011816D01*
X0004100Y0011782D01*
X0004100Y0014691D01*
X0005220Y0013571D01*
X0006800Y0012916D01*
X0008511Y0012916D01*
X0010091Y0013571D01*
X0011301Y0014780D01*
X0011955Y0016361D01*
X0011955Y0018071D01*
X0011301Y0019652D01*
X0010091Y0020861D01*
X0008511Y0021516D01*
X0006800Y0021516D01*
X0005220Y0020861D01*
X0004100Y0019742D01*
X0004100Y0020908D02*
X0005333Y0020908D01*
X0004100Y0021607D02*
X0067860Y0021607D01*
X0067162Y0022305D02*
X0004100Y0022305D01*
X0004100Y0023004D02*
X0006588Y0023004D01*
X0005088Y0023702D02*
X0004100Y0023702D01*
X0004100Y0024401D02*
X0004390Y0024401D01*
X0008723Y0023004D02*
X0066463Y0023004D01*
X0065765Y0023702D02*
X0010223Y0023702D01*
X0010921Y0024401D02*
X0065066Y0024401D01*
X0064368Y0025099D02*
X0011433Y0025099D01*
X0011722Y0025798D02*
X0063669Y0025798D01*
X0062971Y0026496D02*
X0011955Y0026496D01*
X0011955Y0027195D02*
X0062272Y0027195D01*
X0061574Y0027893D02*
X0011955Y0027893D01*
X0011740Y0028592D02*
X0060875Y0028592D01*
X0060177Y0029290D02*
X0011780Y0029290D01*
X0012479Y0029989D02*
X0059478Y0029989D01*
X0058780Y0030687D02*
X0013177Y0030687D01*
X0013876Y0031386D02*
X0058081Y0031386D01*
X0057383Y0032084D02*
X0014574Y0032084D01*
X0015273Y0032783D02*
X0056684Y0032783D01*
X0055986Y0033482D02*
X0015971Y0033482D01*
X0016670Y0034180D02*
X0055287Y0034180D01*
X0054589Y0034879D02*
X0017369Y0034879D01*
X0018067Y0035577D02*
X0053890Y0035577D01*
X0053192Y0036276D02*
X0018766Y0036276D01*
X0019000Y0036974D02*
X0052600Y0036974D01*
X0052600Y0037673D02*
X0019000Y0037673D01*
X0019000Y0038371D02*
X0052600Y0038371D01*
X0052600Y0039070D02*
X0019000Y0039070D01*
X0019000Y0039768D02*
X0052600Y0039768D01*
X0052600Y0040467D02*
X0019000Y0040467D01*
X0019000Y0041165D02*
X0052600Y0041165D01*
X0052600Y0041864D02*
X0019000Y0041864D01*
X0019000Y0042562D02*
X0052600Y0042562D01*
X0052000Y0043261D02*
X0019000Y0043261D01*
X0019000Y0043959D02*
X0052000Y0043959D01*
X0052000Y0044658D02*
X0019000Y0044658D01*
X0019000Y0045356D02*
X0052274Y0045356D01*
X0052973Y0046055D02*
X0019000Y0046055D01*
X0019000Y0046753D02*
X0063200Y0046753D01*
X0063200Y0046055D02*
X0055527Y0046055D01*
X0056226Y0045356D02*
X0063200Y0045356D01*
X0063200Y0044658D02*
X0056500Y0044658D01*
X0056500Y0043959D02*
X0063200Y0043959D01*
X0063200Y0043261D02*
X0056500Y0043261D01*
X0055900Y0042562D02*
X0063200Y0042562D01*
X0063200Y0041864D02*
X0055900Y0041864D01*
X0055900Y0041165D02*
X0063200Y0041165D01*
X0063200Y0040467D02*
X0055900Y0040467D01*
X0055900Y0039768D02*
X0063200Y0039768D01*
X0063200Y0039070D02*
X0055900Y0039070D01*
X0055900Y0038371D02*
X0063200Y0038371D01*
X0063200Y0037673D02*
X0056462Y0037673D01*
X0057160Y0036974D02*
X0063200Y0036974D01*
X0063475Y0036276D02*
X0057859Y0036276D01*
X0058557Y0035577D02*
X0064173Y0035577D01*
X0064872Y0034879D02*
X0059256Y0034879D01*
X0059954Y0034180D02*
X0065570Y0034180D01*
X0066269Y0033482D02*
X0060653Y0033482D01*
X0061351Y0032783D02*
X0066967Y0032783D01*
X0067666Y0032084D02*
X0062050Y0032084D01*
X0062748Y0031386D02*
X0068364Y0031386D01*
X0069063Y0030687D02*
X0063447Y0030687D01*
X0064145Y0029989D02*
X0069761Y0029989D01*
X0070460Y0029290D02*
X0064844Y0029290D01*
X0065542Y0028592D02*
X0070500Y0028592D01*
X0070285Y0027893D02*
X0066241Y0027893D01*
X0066939Y0027195D02*
X0070285Y0027195D01*
X0070285Y0026496D02*
X0067638Y0026496D01*
X0068336Y0025798D02*
X0070518Y0025798D01*
X0070807Y0025099D02*
X0069035Y0025099D01*
X0069733Y0024401D02*
X0071319Y0024401D01*
X0072017Y0023702D02*
X0070432Y0023702D01*
X0071130Y0023004D02*
X0073518Y0023004D01*
X0072527Y0021607D02*
X0078140Y0021607D01*
X0078140Y0022305D02*
X0071829Y0022305D01*
X0069258Y0020210D02*
X0010743Y0020210D01*
X0011359Y0019511D02*
X0069956Y0019511D01*
X0070592Y0018813D02*
X0011648Y0018813D01*
X0011938Y0018114D02*
X0070302Y0018114D01*
X0070285Y0017416D02*
X0011955Y0017416D01*
X0011955Y0016717D02*
X0070285Y0016717D01*
X0070426Y0016019D02*
X0011814Y0016019D01*
X0011524Y0015320D02*
X0070716Y0015320D01*
X0071098Y0014622D02*
X0011142Y0014622D01*
X0010444Y0013923D02*
X0071796Y0013923D01*
X0072984Y0013225D02*
X0009256Y0013225D01*
X0008005Y0011129D02*
X0007306Y0011129D01*
X0007306Y0010431D02*
X0008005Y0010431D01*
X0008005Y0009732D02*
X0007306Y0009732D01*
X0007306Y0009034D02*
X0008005Y0009034D01*
X0008005Y0008335D02*
X0007306Y0008335D01*
X0007306Y0007637D02*
X0008005Y0007637D01*
X0008006Y0006938D02*
X0074235Y0006938D01*
X0074235Y0007637D02*
X0074935Y0007637D01*
X0074935Y0008335D02*
X0074235Y0008335D01*
X0074235Y0009034D02*
X0074935Y0009034D01*
X0074935Y0009732D02*
X0074235Y0009732D01*
X0074235Y0010431D02*
X0074935Y0010431D01*
X0074935Y0011129D02*
X0074235Y0011129D01*
X0076185Y0013225D02*
X0078140Y0013225D01*
X0078140Y0013923D02*
X0077373Y0013923D01*
X0078071Y0014622D02*
X0078140Y0014622D01*
X0078140Y0012526D02*
X0004100Y0012526D01*
X0004100Y0011828D02*
X0078140Y0011828D01*
X0078140Y0020210D02*
X0077672Y0020210D01*
X0078140Y0020908D02*
X0076907Y0020908D01*
X0078140Y0023004D02*
X0075652Y0023004D01*
X0077152Y0023702D02*
X0078140Y0023702D01*
X0078140Y0024401D02*
X0077850Y0024401D01*
X0077893Y0029989D02*
X0078140Y0029989D01*
X0078140Y0030687D02*
X0077194Y0030687D01*
X0078140Y0031386D02*
X0075754Y0031386D01*
X0076805Y0033482D02*
X0078140Y0033482D01*
X0078140Y0034180D02*
X0077630Y0034180D01*
X0078140Y0032783D02*
X0071068Y0032783D01*
X0070370Y0033482D02*
X0072364Y0033482D01*
X0071540Y0034180D02*
X0069671Y0034180D01*
X0068973Y0034879D02*
X0070899Y0034879D01*
X0070609Y0035577D02*
X0068274Y0035577D01*
X0067576Y0036276D02*
X0070320Y0036276D01*
X0070285Y0036974D02*
X0066877Y0036974D01*
X0066179Y0037673D02*
X0070285Y0037673D01*
X0070409Y0038371D02*
X0066100Y0038371D01*
X0066100Y0039070D02*
X0070698Y0039070D01*
X0071056Y0039768D02*
X0066100Y0039768D01*
X0066100Y0040467D02*
X0071754Y0040467D01*
X0072882Y0041165D02*
X0066100Y0041165D01*
X0066100Y0041864D02*
X0078140Y0041864D01*
X0078140Y0042562D02*
X0066100Y0042562D01*
X0066100Y0043261D02*
X0078140Y0043261D01*
X0078140Y0043959D02*
X0066100Y0043959D01*
X0066100Y0044658D02*
X0078140Y0044658D01*
X0078140Y0045356D02*
X0066100Y0045356D01*
X0066100Y0046055D02*
X0078140Y0046055D01*
X0078140Y0046753D02*
X0066100Y0046753D01*
X0066100Y0047452D02*
X0078140Y0047452D01*
X0078140Y0048150D02*
X0066100Y0048150D01*
X0066100Y0048849D02*
X0078140Y0048849D01*
X0078140Y0049547D02*
X0066100Y0049547D01*
X0066100Y0050246D02*
X0078140Y0050246D01*
X0078140Y0050944D02*
X0066100Y0050944D01*
X0066100Y0051643D02*
X0078140Y0051643D01*
X0078140Y0052341D02*
X0066100Y0052341D01*
X0066100Y0053040D02*
X0078140Y0053040D01*
X0078140Y0053738D02*
X0066100Y0053738D01*
X0066100Y0054437D02*
X0078140Y0054437D01*
X0078140Y0055135D02*
X0066117Y0055135D01*
X0066816Y0055834D02*
X0078140Y0055834D01*
X0078140Y0056532D02*
X0066900Y0056532D01*
X0066900Y0057231D02*
X0078140Y0057231D01*
X0078140Y0057929D02*
X0066753Y0057929D01*
X0066054Y0058628D02*
X0078140Y0058628D01*
X0078140Y0059326D02*
X0048794Y0059326D01*
X0048504Y0058628D02*
X0063246Y0058628D01*
X0062547Y0057929D02*
X0048215Y0057929D01*
X0048119Y0057697D02*
X0049376Y0060731D01*
X0049376Y0064016D01*
X0048119Y0067050D01*
X0045796Y0069372D01*
X0042762Y0070629D01*
X0039478Y0070629D01*
X0036444Y0069372D01*
X0034121Y0067050D01*
X0032865Y0064016D01*
X0032865Y0060731D01*
X0034121Y0057697D01*
X0036444Y0055375D01*
X0039478Y0054118D01*
X0042762Y0054118D01*
X0045796Y0055375D01*
X0048119Y0057697D01*
X0047652Y0057231D02*
X0062400Y0057231D01*
X0062400Y0056532D02*
X0046954Y0056532D01*
X0046255Y0055834D02*
X0062484Y0055834D01*
X0063183Y0055135D02*
X0045218Y0055135D01*
X0043532Y0054437D02*
X0063200Y0054437D01*
X0063200Y0053738D02*
X0019000Y0053738D01*
X0019000Y0053040D02*
X0063200Y0053040D01*
X0063200Y0052341D02*
X0019000Y0052341D01*
X0019000Y0051643D02*
X0063200Y0051643D01*
X0063200Y0050944D02*
X0019000Y0050944D01*
X0019000Y0050246D02*
X0063200Y0050246D01*
X0063200Y0049547D02*
X0019000Y0049547D01*
X0019000Y0048849D02*
X0063200Y0048849D01*
X0063200Y0048150D02*
X0019000Y0048150D01*
X0019000Y0047452D02*
X0063200Y0047452D01*
X0076287Y0041165D02*
X0078140Y0041165D01*
X0078140Y0040467D02*
X0077415Y0040467D01*
X0078114Y0039768D02*
X0078140Y0039768D01*
X0078140Y0032084D02*
X0071767Y0032084D01*
X0072465Y0031386D02*
X0073415Y0031386D01*
X0068559Y0020908D02*
X0009978Y0020908D01*
X0004169Y0014622D02*
X0004100Y0014622D01*
X0004100Y0013923D02*
X0004867Y0013923D01*
X0004100Y0013225D02*
X0006055Y0013225D01*
X0012082Y0011129D02*
X0070159Y0011129D01*
X0069985Y0010431D02*
X0012255Y0010431D01*
X0012255Y0009732D02*
X0069985Y0009732D01*
X0069985Y0009034D02*
X0012255Y0009034D01*
X0012255Y0008335D02*
X0069985Y0008335D01*
X0069985Y0007637D02*
X0012255Y0007637D01*
X0012255Y0006240D02*
X0069985Y0006240D01*
X0069985Y0005541D02*
X0012255Y0005541D01*
X0012255Y0004843D02*
X0069985Y0004843D01*
X0069985Y0004144D02*
X0012255Y0004144D01*
X0004347Y0029989D02*
X0004100Y0029989D01*
X0004100Y0030687D02*
X0005046Y0030687D01*
X0004100Y0031386D02*
X0006486Y0031386D01*
X0005435Y0033482D02*
X0004100Y0033482D01*
X0004100Y0034180D02*
X0004610Y0034180D01*
X0004100Y0032783D02*
X0011172Y0032783D01*
X0011870Y0033482D02*
X0009876Y0033482D01*
X0010701Y0034180D02*
X0012569Y0034180D01*
X0013267Y0034879D02*
X0011342Y0034879D01*
X0011631Y0035577D02*
X0013966Y0035577D01*
X0014664Y0036276D02*
X0011920Y0036276D01*
X0011955Y0036974D02*
X0015363Y0036974D01*
X0016061Y0037673D02*
X0011955Y0037673D01*
X0011831Y0038371D02*
X0016100Y0038371D01*
X0016100Y0039070D02*
X0011542Y0039070D01*
X0011185Y0039768D02*
X0016100Y0039768D01*
X0016100Y0040467D02*
X0010486Y0040467D01*
X0009358Y0041165D02*
X0016100Y0041165D01*
X0016100Y0041864D02*
X0004100Y0041864D01*
X0004100Y0042562D02*
X0016100Y0042562D01*
X0016100Y0043261D02*
X0004100Y0043261D01*
X0004100Y0043959D02*
X0016100Y0043959D01*
X0016100Y0044658D02*
X0004100Y0044658D01*
X0004100Y0045356D02*
X0016100Y0045356D01*
X0016100Y0046055D02*
X0004100Y0046055D01*
X0004100Y0046753D02*
X0016100Y0046753D01*
X0016100Y0047452D02*
X0004100Y0047452D01*
X0004100Y0048150D02*
X0016100Y0048150D01*
X0016100Y0048849D02*
X0004100Y0048849D01*
X0004100Y0049547D02*
X0016100Y0049547D01*
X0016100Y0050246D02*
X0004100Y0050246D01*
X0004100Y0050944D02*
X0016100Y0050944D01*
X0016100Y0051643D02*
X0004100Y0051643D01*
X0004100Y0052341D02*
X0016100Y0052341D01*
X0016100Y0053040D02*
X0004100Y0053040D01*
X0004100Y0053738D02*
X0016100Y0053738D01*
X0015681Y0054437D02*
X0004100Y0054437D01*
X0004100Y0055135D02*
X0015300Y0055135D01*
X0015300Y0055834D02*
X0004100Y0055834D01*
X0004100Y0056532D02*
X0015300Y0056532D01*
X0015849Y0057231D02*
X0004100Y0057231D01*
X0004100Y0057929D02*
X0016547Y0057929D01*
X0018553Y0057929D02*
X0034025Y0057929D01*
X0033736Y0058628D02*
X0004100Y0058628D01*
X0004100Y0059326D02*
X0033447Y0059326D01*
X0033157Y0060025D02*
X0004100Y0060025D01*
X0004100Y0060723D02*
X0032868Y0060723D01*
X0032865Y0061422D02*
X0004100Y0061422D01*
X0004100Y0062120D02*
X0032865Y0062120D01*
X0032865Y0062819D02*
X0004100Y0062819D01*
X0004100Y0063518D02*
X0032865Y0063518D01*
X0032948Y0064216D02*
X0004100Y0064216D01*
X0004100Y0064915D02*
X0033237Y0064915D01*
X0033526Y0065613D02*
X0004100Y0065613D01*
X0004100Y0066312D02*
X0033816Y0066312D01*
X0034105Y0067010D02*
X0004100Y0067010D01*
X0004100Y0067709D02*
X0034780Y0067709D01*
X0035478Y0068407D02*
X0004100Y0068407D01*
X0004100Y0069106D02*
X0036177Y0069106D01*
X0037486Y0069804D02*
X0004100Y0069804D01*
X0004100Y0070503D02*
X0039173Y0070503D01*
X0043068Y0070503D02*
X0078140Y0070503D01*
X0078140Y0071201D02*
X0004100Y0071201D01*
X0019251Y0057231D02*
X0034588Y0057231D01*
X0035286Y0056532D02*
X0019800Y0056532D01*
X0019800Y0055834D02*
X0035985Y0055834D01*
X0037022Y0055135D02*
X0019800Y0055135D01*
X0019419Y0054437D02*
X0038708Y0054437D01*
X0049083Y0060025D02*
X0078140Y0060025D01*
X0078140Y0060723D02*
X0049372Y0060723D01*
X0049376Y0061422D02*
X0078140Y0061422D01*
X0078140Y0062120D02*
X0049376Y0062120D01*
X0049376Y0062819D02*
X0078140Y0062819D01*
X0078140Y0063518D02*
X0049376Y0063518D01*
X0049293Y0064216D02*
X0078140Y0064216D01*
X0078140Y0064915D02*
X0049003Y0064915D01*
X0048714Y0065613D02*
X0078140Y0065613D01*
X0078140Y0066312D02*
X0048425Y0066312D01*
X0048135Y0067010D02*
X0078140Y0067010D01*
X0078140Y0067709D02*
X0047460Y0067709D01*
X0046762Y0068407D02*
X0078140Y0068407D01*
X0078140Y0069106D02*
X0046063Y0069106D01*
X0044754Y0069804D02*
X0078140Y0069804D01*
X0010473Y0032084D02*
X0004100Y0032084D01*
X0008825Y0031386D02*
X0009775Y0031386D01*
X0004126Y0039768D02*
X0004100Y0039768D01*
X0004100Y0040467D02*
X0004825Y0040467D01*
X0004100Y0041165D02*
X0005953Y0041165D01*
D14*
X0005050Y0032350D03*
X0010750Y0022350D03*
X0030750Y0029350D03*
X0037750Y0033950D03*
X0024750Y0048350D03*
X0017550Y0055750D03*
X0054250Y0044150D03*
X0064650Y0056850D03*
X0074650Y0060450D03*
X0074650Y0063550D03*
X0076750Y0032350D03*
X0076750Y0022350D03*
X0047250Y0018850D03*
D15*
X0064650Y0037151D02*
X0074585Y0027216D01*
X0064650Y0037151D02*
X0064650Y0056850D01*
X0017550Y0055750D02*
X0017550Y0037111D01*
X0007656Y0027216D01*
D16*
X0054250Y0037551D02*
X0060200Y0031600D01*
X0074585Y0017216D01*
X0054250Y0037551D02*
X0054250Y0044150D01*
M02*
