%
M48
M72
T01C0.01200
T02C0.03500
T03C0.11811
%
T01
X10750Y22350
X5050Y32350
X24750Y48350
X17550Y55750
X37750Y33950
X30750Y29350
X47250Y18850
X54250Y44150
X64650Y56850
X74650Y60450
X74650Y63550
X76750Y32350
X76750Y22350
T02
X7656Y7216
X7656Y17216
X7656Y27216
X7656Y37216
X74585Y37216
X74585Y27216
X74585Y17216
X74585Y7216
T03
X41120Y62374
M30
